<svg width="12.000000" height="12.000000" viewBox="0 0 12 12" fill="none" xmlns="http://www.w3.org/2000/svg" xmlns:xlink="http://www.w3.org/1999/xlink">
	<desc>
			Created with Pixso.
	</desc>
	<defs>
		<clipPath id="clip20_949">
			<rect id="map-pin (2) 1" rx="-0.500000" width="11.000000" height="11.000000" transform="translate(0.500000 0.500000)" fill="white" fill-opacity="0"/>
		</clipPath>
	</defs>
	<rect id="map-pin (2) 1" rx="-0.500000" width="11.000000" height="11.000000" transform="translate(0.500000 0.500000)" fill="#FFFFFF" fill-opacity="0"/>
	<g clip-path="url(#clip20_949)">
		<path id="Vector" d="M6 11.5C6 11.5 1.5 8.5 1.5 5C1.5 3.8 1.97 2.66 2.81 1.81C3.66 0.97 4.8 0.5 6 0.5C7.19 0.5 8.33 0.97 9.18 1.81C10.02 2.66 10.5 3.8 10.5 5C10.5 8.5 6 11.5 6 11.5Z" stroke="#4B565E" stroke-opacity="1.000000" stroke-width="1.000000" stroke-linejoin="round"/>
		<path id="Vector" d="M7.5 5C7.5 5.82 6.82 6.5 6 6.5C5.17 6.5 4.5 5.82 4.5 5C4.5 4.17 5.17 3.5 6 3.5C6.82 3.5 7.5 4.17 7.5 5Z" fill="#4B565E" fill-opacity="1.000000" fill-rule="evenodd"/>
		<path id="Vector" d="M6 6.5C5.17 6.5 4.5 5.82 4.5 5C4.5 4.17 5.17 3.5 6 3.5C6.82 3.5 7.5 4.17 7.5 5C7.5 5.82 6.82 6.5 6 6.5Z" stroke="#4B565E" stroke-opacity="1.000000" stroke-width="1.000000" stroke-linejoin="round"/>
	</g>
</svg>
